<svg width="200" height="200" viewBox="0 0 200 200" fill="none" xmlns="http://www.w3.org/2000/svg">
<g clip-path="url(#clip0_208_223)">
<path d="M200 0H0V200H200V0Z" fill="black"/>
<path d="M117.04 81.1997H84.7197C83.3597 81.1997 82.2397 82.3197 82.2397 83.6797V116C82.2397 117.36 83.3597 118.48 84.7197 118.48H117.04C118.4 118.48 119.52 117.36 119.52 116V83.6797C119.52 82.3197 118.4 81.1997 117.04 81.1997Z" fill="white"/>
<path d="M79.6799 43.9199H47.3599C45.9999 43.9199 44.8799 45.0399 44.8799 46.3999V78.7199C44.8799 80.0799 45.9999 81.1999 47.3599 81.1999H79.6799C81.0399 81.1999 82.1599 80.0799 82.1599 78.7199V46.3999C82.1599 45.0399 81.0399 43.9199 79.6799 43.9199Z" fill="white"/>
<path d="M154.4 43.9199H122.08C120.72 43.9199 119.6 45.0399 119.6 46.3999V78.7199C119.6 80.0799 120.72 81.1999 122.08 81.1999H154.4C155.76 81.1999 156.88 80.0799 156.88 78.7199V46.3999C156.88 45.0399 155.76 43.9199 154.4 43.9199Z" fill="white"/>
<path d="M79.6799 118.56H47.3599C45.9999 118.56 44.8799 119.68 44.8799 121.04V153.36C44.8799 154.72 45.9999 155.84 47.3599 155.84H79.6799C81.0399 155.84 82.1599 154.72 82.1599 153.36V121.04C82.1599 119.68 81.0399 118.56 79.6799 118.56Z" fill="white"/>
<path d="M154.4 118.56H122.08C120.72 118.56 119.6 119.68 119.6 121.04V153.36C119.6 154.72 120.72 155.84 122.08 155.84H154.4C155.76 155.84 156.88 154.72 156.88 153.36V121.04C156.88 119.68 155.76 118.56 154.4 118.56Z" fill="white"/>
</g>
<defs>
<clipPath id="clip0_208_223">
<rect width="200" height="200" rx="66" fill="white"/>
</clipPath>
</defs>
</svg>
